<?xml version="1.0" encoding="UTF-8" standalone="no"?>
<!-- Generator: Adobe Illustrator 15.0.0, SVG Export Plug-In . SVG Version: 6.00 Build 0)  -->

<svg
   xmlns:dc="http://purl.org/dc/elements/1.1/"
   xmlns:cc="http://creativecommons.org/ns#"
   xmlns:rdf="http://www.w3.org/1999/02/22-rdf-syntax-ns#"
   xmlns:svg="http://www.w3.org/2000/svg"
   xmlns="http://www.w3.org/2000/svg"
   xmlns:sodipodi="http://sodipodi.sourceforge.net/DTD/sodipodi-0.dtd"
   xmlns:inkscape="http://www.inkscape.org/namespaces/inkscape"
   version="1.1"
   id="Layer_1"
   x="0px"
   y="0px"
   width="103.17322"
   height="104.31332"
   viewBox="0 0 103.17322 104.31332"
   enable-background="new 0 0 190 50"
   xml:space="preserve"
   inkscape:version="0.92.3 (2405546, 2018-03-11)"
   sodipodi:docname="icon2.svg"
   inkscape:export-filename="C:\Users\johny\Documents\Workspace\Personal\outlook-dark-mode\icon.png"
   inkscape:export-xdpi="1905.61"
   inkscape:export-ydpi="1905.61"><metadata
   id="metadata45"><rdf:RDF><cc:Work
       rdf:about=""><dc:format>image/svg+xml</dc:format><dc:type
         rdf:resource="http://purl.org/dc/dcmitype/StillImage" /><dc:title></dc:title></cc:Work></rdf:RDF></metadata><defs
   id="defs43">
	
	
</defs><sodipodi:namedview
   pagecolor="#ffb6ff"
   bordercolor="#666666"
   borderopacity="1"
   objecttolerance="10"
   gridtolerance="10"
   guidetolerance="10"
   inkscape:pageopacity="0"
   inkscape:pageshadow="2"
   inkscape:window-width="1920"
   inkscape:window-height="1013"
   id="namedview41"
   showgrid="false"
   fit-margin-top="0"
   fit-margin-left="0"
   fit-margin-right="0"
   fit-margin-bottom="0"
   inkscape:zoom="4.6"
   inkscape:cx="-4.4983468"
   inkscape:cy="54.272031"
   inkscape:window-x="-9"
   inkscape:window-y="-9"
   inkscape:window-maximized="1"
   inkscape:current-layer="Layer_1"
   inkscape:snap-bbox="true"
   inkscape:bbox-nodes="true"
   inkscape:snap-page="true"
   inkscape:snap-bbox-edge-midpoints="true"
   inkscape:bbox-paths="true"
   inkscape:snap-object-midpoints="true"
   inkscape:snap-center="true"
   inkscape:snap-text-baseline="true"
   inkscape:snap-bbox-midpoints="true"
   inkscape:snap-smooth-nodes="true"
   inkscape:object-paths="true"
   inkscape:snap-intersection-paths="true"
   inkscape:snap-midpoints="true"
   inkscape:pagecheckerboard="true" />




<path
   sodipodi:nodetypes="cccsc"
   d="m 61.363987,29.528196 v 15.369943 c 12.161934,0.758653 21.722892,-7.254717 29.078348,-12.203286 0,-1.844512 -1.720561,-3.166657 -2.691508,-3.166657 z"
   id="path3"
   inkscape:connector-curvature="0"
   style="fill:#ffffff;fill-opacity:1;stroke-width:0.7532708" /><path
   d="m 61.363987,50.632356 4.901973,3.36734 c 0.690585,0.507609 1.522828,0 1.522828,0 -0.829292,0.507609 22.656499,-15.092529 22.656499,-15.092529 v 28.249059 c 0,3.075169 -1.968462,4.364851 -4.181874,4.364851 H 61.361035 V 50.632356 Z"
   id="path5"
   inkscape:connector-curvature="0"
   style="fill:#ffffff;fill-opacity:1;stroke-width:0.7532708" /><path
   style="fill:#ffffff;fill-opacity:1;stroke-width:2.95121789"
   d="M 58.472656 12.869141 L 12.728516 21.722656 L 12.728516 81.853516 L 58.472656 91.445312 L 58.472656 12.869141 z M 26.234375 39.320312 L 33.792969 39.320312 C 35.746094 39.320312 37.451823 39.567708 38.910156 40.0625 C 40.38151 40.544271 41.605469 41.292969 42.582031 42.308594 C 43.558594 43.324219 44.28776 44.613281 44.769531 46.175781 C 45.264323 47.738281 45.511719 49.60026 45.511719 51.761719 C 45.511719 53.740885 45.264323 55.53776 44.769531 57.152344 C 44.28776 58.766927 43.526042 60.147135 42.484375 61.292969 C 41.455729 62.425781 40.134115 63.304688 38.519531 63.929688 C 36.904948 64.541667 34.971354 64.847656 32.71875 64.847656 L 26.234375 64.847656 L 26.234375 39.320312 z M 31.039062 43.34375 L 31.039062 60.824219 L 33.148438 60.824219 C 35.505208 60.824219 37.295573 60.121094 38.519531 58.714844 C 39.74349 57.308594 40.355469 55.095052 40.355469 52.074219 C 40.355469 50.69401 40.244792 49.463542 40.023438 48.382812 C 39.802083 47.302083 39.424479 46.390625 38.890625 45.648438 C 38.369792 44.893229 37.666667 44.320313 36.78125 43.929688 C 35.895833 43.539062 34.795573 43.34375 33.480469 43.34375 L 31.039062 43.34375 z "
   id="path27" />






<text
   xml:space="preserve"
   style="font-style:normal;font-variant:normal;font-weight:bold;font-stretch:normal;font-size:40px;line-height:1.25;font-family:'Yu Gothic UI';-inkscape-font-specification:'Yu Gothic UI Bold';letter-spacing:0px;word-spacing:0px;display:none;fill:#000000;fill-opacity:1;stroke:none"
   x="42.368004"
   y="66.914978"
   id="text4529"><tspan
     sodipodi:role="line"
     id="tspan4527"
     x="42.368004"
     y="66.914978">M</tspan></text>

</svg>